<svg width="225" height="57" viewBox="0 0 225 57" fill="none" xmlns="http://www.w3.org/2000/svg">
<path d="M0.981986 20.8705C0.981986 19.2945 1.27295 17.7548 1.85486 16.2515C2.43678 14.724 3.28541 13.3419 4.40075 12.1053C5.5161 10.8688 6.8739 9.88678 8.47418 9.15938C10.0745 8.40774 11.8929 8.03192 13.9297 8.03192C16.3543 8.03192 18.4516 8.55322 20.2216 9.59582C22.0159 10.6384 23.3495 11.9962 24.2223 13.6692L19.6397 16.8698C19.2518 15.9484 18.7305 15.2332 18.0758 14.724C17.4454 14.2148 16.7423 13.8632 15.9664 13.6692C15.2147 13.451 14.4873 13.3419 13.7842 13.3419C12.6446 13.3419 11.6505 13.5723 10.8018 14.0329C9.95322 14.4694 9.25007 15.0634 8.6924 15.8151C8.13473 16.5667 7.72253 17.4032 7.45582 18.3246C7.18911 19.246 7.05575 20.1673 7.05575 21.0887C7.05575 22.1071 7.21336 23.089 7.52856 24.0347C7.84377 24.9803 8.29233 25.8168 8.87425 26.5442C9.48041 27.2716 10.2078 27.8535 11.0564 28.2899C11.9051 28.7021 12.8386 28.9082 13.8569 28.9082C14.5843 28.9082 15.3238 28.787 16.0755 28.5445C16.8271 28.3021 17.5182 27.9262 18.1486 27.4171C18.8032 26.8836 19.3003 26.1926 19.6397 25.344L24.5133 28.2172C24.0041 29.478 23.1676 30.557 22.0038 31.4541C20.8399 32.3512 19.5185 33.0423 18.0395 33.5272C16.5847 33.9879 15.142 34.2182 13.7114 34.2182C11.8445 34.2182 10.1229 33.8424 8.54692 33.0908C6.99514 32.3149 5.64945 31.2965 4.50986 30.0357C3.39452 28.7506 2.52164 27.3201 1.89123 25.744C1.28507 24.1438 0.981986 22.5192 0.981986 20.8705ZM38.4688 34.2182C36.5291 34.2182 34.7712 33.8545 33.1952 33.1271C31.6434 32.3755 30.2977 31.3814 29.1581 30.1448C28.0428 28.884 27.182 27.4777 26.5759 25.9259C25.9697 24.3499 25.6666 22.7253 25.6666 21.0523C25.6666 19.3308 25.9818 17.6942 26.6122 16.1424C27.2669 14.5906 28.164 13.2086 29.3036 11.9962C30.4674 10.7597 31.8374 9.78979 33.4134 9.08664C34.9894 8.38349 36.7109 8.03192 38.5779 8.03192C40.4934 8.03192 42.227 8.40774 43.7788 9.15938C45.3548 9.88678 46.7005 10.8809 47.8159 12.1417C48.9554 13.4025 49.8283 14.821 50.4345 16.397C51.0407 17.9488 51.3437 19.5369 51.3437 21.1614C51.3437 22.8829 51.0285 24.5196 50.3981 26.0714C49.7677 27.6232 48.8706 29.0173 47.7067 30.2539C46.5429 31.4662 45.173 32.4361 43.597 33.1635C42.0452 33.8666 40.3358 34.2182 38.4688 34.2182ZM31.7404 21.1251C31.7404 22.1192 31.8859 23.089 32.1768 24.0347C32.4678 24.956 32.8921 25.7804 33.4498 26.5078C34.0317 27.2352 34.747 27.8171 35.5956 28.2536C36.4442 28.69 37.4141 28.9082 38.5052 28.9082C39.6448 28.9082 40.6389 28.69 41.4875 28.2536C42.3361 27.7929 43.0393 27.1867 43.597 26.4351C44.1546 25.6834 44.5668 24.8469 44.8335 23.9255C45.1245 22.9799 45.27 22.0222 45.27 21.0523C45.27 20.0582 45.1245 19.1005 44.8335 18.1791C44.5426 17.2577 44.1061 16.4334 43.5242 15.706C42.9423 14.9543 42.227 14.3724 41.3784 13.9602C40.5298 13.548 39.572 13.3419 38.5052 13.3419C37.3656 13.3419 36.3715 13.5601 35.5228 13.9966C34.6985 14.433 33.9953 15.0271 33.4134 15.7787C32.8557 16.5061 32.4314 17.3426 32.1404 18.2882C31.8737 19.2096 31.7404 20.1552 31.7404 21.1251ZM54.7903 34V8.1774H66.4287C67.641 8.1774 68.7564 8.43199 69.7747 8.94116C70.8173 9.4261 71.7145 10.0929 72.4661 10.9415C73.2177 11.7659 73.7997 12.6994 74.2119 13.742C74.6483 14.7846 74.8665 15.8393 74.8665 16.9062C74.8665 17.973 74.6968 18.9914 74.3573 19.9612C74.0179 20.9068 73.5329 21.7676 72.9025 22.5435C72.2721 23.2951 71.5205 23.9134 70.6476 24.3984L76.3213 34H69.7384L64.7921 25.6713H60.755V34H54.7903ZM60.755 20.4704H66.2105C66.6954 20.4704 67.1197 20.3249 67.4834 20.034C67.8714 19.7188 68.1866 19.2945 68.429 18.761C68.6715 18.2276 68.7927 17.6093 68.7927 16.9062C68.7927 16.203 68.6473 15.5968 68.3563 15.0877C68.0896 14.5542 67.7501 14.1421 67.3379 13.8511C66.9258 13.5601 66.4893 13.4147 66.0286 13.4147H60.755V20.4704ZM85.6655 8.1774H92.103L100.977 34H94.8671L92.8667 28.2172H84.829L82.865 34H76.7549L85.6655 8.1774ZM91.8848 24.1074L88.8661 14.1784L85.7746 24.1074H91.8848ZM108.895 27.9262C109.138 28.096 109.647 28.3384 110.423 28.6536C111.223 28.9446 112.156 29.0901 113.223 29.0901C114.072 29.0901 114.763 28.9446 115.296 28.6536C115.854 28.3627 116.266 27.9262 116.533 27.3443C116.824 26.7382 117.018 25.9623 117.115 25.0166C117.212 24.0468 117.26 22.8829 117.26 21.5251V8.1774H123.225V21.3069C123.225 23.2466 123.116 25.0166 122.897 26.6169C122.679 28.2172 122.231 29.6114 121.552 30.7995C120.897 31.9633 119.903 32.8604 118.569 33.4908C117.236 34.097 115.454 34.4001 113.223 34.4001C112.083 34.4001 111.053 34.2667 110.132 34C109.21 33.7333 108.362 33.3332 107.586 32.7998L108.895 27.9262ZM139.196 34.2182C137.257 34.2182 135.499 33.8545 133.923 33.1271C132.371 32.3755 131.025 31.3814 129.886 30.1448C128.77 28.884 127.909 27.4777 127.303 25.9259C126.697 24.3499 126.394 22.7253 126.394 21.0523C126.394 19.3308 126.709 17.6942 127.34 16.1424C127.994 14.5906 128.891 13.2086 130.031 11.9962C131.195 10.7597 132.565 9.78979 134.141 9.08664C135.717 8.38349 137.438 8.03192 139.305 8.03192C141.221 8.03192 142.954 8.40774 144.506 9.15938C146.082 9.88678 147.428 10.8809 148.543 12.1417C149.683 13.4025 150.556 14.821 151.162 16.397C151.768 17.9488 152.071 19.5369 152.071 21.1614C152.071 22.8829 151.756 24.5196 151.126 26.0714C150.495 27.6232 149.598 29.0173 148.434 30.2539C147.27 31.4662 145.9 32.4361 144.324 33.1635C142.773 33.8666 141.063 34.2182 139.196 34.2182ZM132.468 21.1251C132.468 22.1192 132.613 23.089 132.904 24.0347C133.195 24.956 133.62 25.7804 134.177 26.5078C134.759 27.2352 135.474 27.8171 136.323 28.2536C137.172 28.69 138.142 28.9082 139.233 28.9082C140.372 28.9082 141.366 28.69 142.215 28.2536C143.064 27.7929 143.767 27.1867 144.324 26.4351C144.882 25.6834 145.294 24.8469 145.561 23.9255C145.852 22.9799 145.997 22.0222 145.997 21.0523C145.997 20.0582 145.852 19.1005 145.561 18.1791C145.27 17.2577 144.834 16.4334 144.252 15.706C143.67 14.9543 142.954 14.3724 142.106 13.9602C141.257 13.548 140.299 13.3419 139.233 13.3419C138.093 13.3419 137.099 13.5601 136.25 13.9966C135.426 14.433 134.723 15.0271 134.141 15.7787C133.583 16.5061 133.159 17.3426 132.868 18.2882C132.601 19.2096 132.468 20.1552 132.468 21.1251ZM161.482 19.2338V34H155.518V8.1774H160.246L172.212 23.38V8.1774H178.176V34H173.303L161.482 19.2338ZM201.263 28.7627V34H183.115V8.1774H200.936V13.4147H189.08V18.4337H199.263V23.2709H189.08V28.7627H201.263ZM220.381 15.7423C220.308 15.6211 220.053 15.4392 219.617 15.1968C219.18 14.9301 218.635 14.6512 217.98 14.3603C217.326 14.0693 216.61 13.8147 215.834 13.5965C215.058 13.3783 214.283 13.2692 213.507 13.2692C212.488 13.2692 211.7 13.451 211.143 13.8147C210.585 14.1542 210.306 14.6876 210.306 15.415C210.306 15.9969 210.512 16.4576 210.924 16.7971C211.361 17.1365 211.979 17.4396 212.779 17.7063C213.579 17.9488 214.561 18.2397 215.725 18.5792C217.374 19.0156 218.805 19.549 220.017 20.1795C221.229 20.7856 222.151 21.5736 222.781 22.5435C223.436 23.5134 223.763 24.7984 223.763 26.3987C223.763 27.8535 223.496 29.0901 222.963 30.1084C222.429 31.1025 221.702 31.9148 220.781 32.5452C219.884 33.1514 218.853 33.5999 217.689 33.8909C216.525 34.1576 215.325 34.291 214.089 34.291C212.828 34.291 211.531 34.1697 210.197 33.9273C208.888 33.6605 207.627 33.2968 206.415 32.8362C205.202 32.3512 204.087 31.7693 203.069 31.0904L205.687 25.8895C205.784 26.0108 206.099 26.2411 206.633 26.5805C207.166 26.8958 207.821 27.2352 208.597 27.5989C209.397 27.9384 210.282 28.2414 211.252 28.5082C212.222 28.7749 213.204 28.9082 214.198 28.9082C215.265 28.9082 216.053 28.7385 216.562 28.399C217.095 28.0596 217.362 27.5868 217.362 26.9806C217.362 26.326 217.083 25.8168 216.525 25.4531C215.992 25.0894 215.252 24.7621 214.307 24.4711C213.385 24.1801 212.319 23.8528 211.106 23.4891C209.53 23.0042 208.221 22.4586 207.178 21.8525C206.16 21.2463 205.396 20.5068 204.887 19.6339C204.402 18.761 204.16 17.6699 204.16 16.3606C204.16 14.5421 204.584 13.0146 205.433 11.778C206.305 10.5172 207.469 9.57158 208.924 8.94116C210.379 8.28651 211.967 7.95918 213.689 7.95918C214.901 7.95918 216.065 8.10466 217.18 8.39562C218.32 8.68657 219.374 9.05027 220.344 9.48671C221.338 9.92315 222.223 10.3596 222.999 10.796L220.381 15.7423Z" fill="white"/>
<path d="M0.887671 52V44.1219H3.68384C4.53452 44.1219 5.24466 44.2995 5.81425 44.6545C6.38384 45.0022 6.80918 45.4756 7.09027 46.0748C7.37877 46.6666 7.52301 47.3249 7.52301 48.0499C7.52301 48.8488 7.36397 49.5441 7.04589 50.1359C6.73521 50.7277 6.29137 51.1863 5.71438 51.5118C5.1374 51.8373 4.46055 52 3.68384 52H0.887671ZM6.25808 48.0499C6.25808 47.4951 6.15452 47.0068 5.9474 46.5852C5.74767 46.1562 5.45548 45.8233 5.07082 45.5866C4.69356 45.3425 4.23123 45.2204 3.68384 45.2204H2.13041V50.9015H3.68384C4.23863 50.9015 4.70466 50.7758 5.08192 50.5242C5.46658 50.2727 5.75877 49.9325 5.95849 49.5034C6.15822 49.0744 6.25808 48.5899 6.25808 48.0499ZM8.83033 52V44.1219H10.0731V52H8.83033ZM11.8535 52V44.1219H15.2822C15.6372 44.1219 15.9627 44.1959 16.2586 44.3438C16.5545 44.4918 16.8097 44.6878 17.0242 44.9319C17.2461 45.176 17.4163 45.4497 17.5346 45.753C17.6604 46.0563 17.7233 46.367 17.7233 46.6851C17.7233 47.0327 17.6604 47.3656 17.5346 47.6837C17.4089 48.0018 17.2276 48.2755 16.9909 48.5048C16.7616 48.7341 16.4916 48.9005 16.1809 49.0041L18.0339 52H16.6359L14.9271 49.2593H13.0963V52H11.8535ZM13.0963 48.1608H15.2711C15.5004 48.1608 15.7038 48.0942 15.8813 47.9611C16.0589 47.8279 16.1994 47.6504 16.303 47.4285C16.4065 47.1992 16.4583 46.9514 16.4583 46.6851C16.4583 46.4114 16.3991 46.1673 16.2808 45.9527C16.1624 45.7308 16.0071 45.5533 15.8148 45.4201C15.6298 45.287 15.4264 45.2204 15.2045 45.2204H13.0963V48.1608ZM24.5931 50.9015V52H19.1894V44.1219H24.4932V45.2204H20.4321V47.4618H23.9495V48.4937H20.4321V50.9015H24.5931ZM25.2349 48.0055C25.2349 47.5247 25.32 47.0549 25.4901 46.5963C25.6603 46.1303 25.9081 45.7086 26.2335 45.3314C26.5664 44.9467 26.9696 44.6434 27.443 44.4215C27.9164 44.1922 28.4527 44.0775 29.0519 44.0775C29.762 44.0775 30.376 44.2403 30.8938 44.5658C31.4116 44.8838 31.7963 45.2944 32.0478 45.7974L31.0714 46.4521C30.9234 46.134 30.7348 45.8825 30.5055 45.6975C30.2835 45.5126 30.0394 45.3832 29.7731 45.3092C29.5142 45.2352 29.259 45.1982 29.0075 45.1982C28.5933 45.1982 28.2308 45.2833 27.9201 45.4534C27.6094 45.6162 27.3468 45.8344 27.1323 46.1081C26.9252 46.3818 26.7661 46.6888 26.6552 47.029C26.5516 47.3693 26.4998 47.7096 26.4998 48.0499C26.4998 48.4271 26.5627 48.7933 26.6885 49.1484C26.8142 49.496 26.9881 49.8067 27.21 50.0804C27.4393 50.3467 27.7093 50.5575 28.02 50.7129C28.3307 50.8682 28.6709 50.9459 29.0408 50.9459C29.2923 50.9459 29.5549 50.9015 29.8286 50.8127C30.1023 50.724 30.3538 50.5871 30.5831 50.4022C30.8198 50.2099 31.0048 49.9584 31.1379 49.6477L32.1698 50.2358C32.0071 50.6278 31.7519 50.9607 31.4042 51.2344C31.064 51.5081 30.6793 51.7152 30.2503 51.8558C29.8286 51.9963 29.4107 52.0666 28.9964 52.0666C28.4416 52.0666 27.9349 51.9519 27.4763 51.7226C27.0177 51.4859 26.6219 51.1752 26.289 50.7905C25.9561 50.3985 25.6972 49.9621 25.5123 49.4812C25.3274 48.993 25.2349 48.5011 25.2349 48.0055ZM39.1003 45.2204H36.4816V52H35.2278V45.2204H32.5981V44.1219H39.1003V45.2204ZM43.2133 52.0555C42.6437 52.0555 42.1296 51.9445 41.671 51.7226C41.2123 51.5007 40.8166 51.2011 40.4837 50.8238C40.1508 50.4392 39.8919 50.0101 39.707 49.5367C39.5295 49.0559 39.4407 48.564 39.4407 48.061C39.4407 47.5358 39.5369 47.0364 39.7292 46.563C39.9215 46.0822 40.1878 45.6568 40.5281 45.287C40.8684 44.9097 41.2678 44.6138 41.7264 44.3993C42.1925 44.1774 42.6955 44.0664 43.2355 44.0664C43.7977 44.0664 44.3081 44.1811 44.7667 44.4104C45.2327 44.6397 45.6285 44.9467 45.954 45.3314C46.2869 45.716 46.5421 46.1451 46.7196 46.6185C46.9045 47.0919 46.997 47.5764 46.997 48.0721C46.997 48.5973 46.9008 49.1003 46.7085 49.5811C46.5236 50.0545 46.261 50.4799 45.9207 50.8571C45.5804 51.227 45.1773 51.5192 44.7112 51.7337C44.2526 51.9482 43.7533 52.0555 43.2133 52.0555ZM40.7056 48.061C40.7056 48.4308 40.7648 48.7896 40.8832 49.1373C41.0015 49.4849 41.1679 49.7956 41.3825 50.0693C41.6044 50.3356 41.8707 50.5464 42.1814 50.7018C42.4921 50.8571 42.8397 50.9348 43.2244 50.9348C43.6238 50.9348 43.9789 50.8534 44.2896 50.6907C44.6003 50.5279 44.8592 50.3097 45.0663 50.036C45.2808 49.7549 45.4436 49.4442 45.5545 49.104C45.6655 48.7563 45.721 48.4086 45.721 48.061C45.721 47.6911 45.6618 47.336 45.5434 46.9958C45.4325 46.6481 45.266 46.3411 45.0441 46.0748C44.8222 45.8011 44.5559 45.5866 44.2452 45.4312C43.9419 45.2759 43.6016 45.1982 43.2244 45.1982C42.8249 45.1982 42.4699 45.2796 42.1592 45.4423C41.8485 45.6051 41.5859 45.8233 41.3714 46.097C41.1569 46.3707 40.9904 46.6777 40.8721 47.0179C40.7611 47.3582 40.7056 47.7059 40.7056 48.061ZM48.2836 52V44.1219H51.7122C52.0673 44.1219 52.3928 44.1959 52.6887 44.3438C52.9846 44.4918 53.2398 44.6878 53.4543 44.9319C53.6762 45.176 53.8463 45.4497 53.9647 45.753C54.0904 46.0563 54.1533 46.367 54.1533 46.6851C54.1533 47.0327 54.0904 47.3656 53.9647 47.6837C53.8389 48.0018 53.6577 48.2755 53.421 48.5048C53.1917 48.7341 52.9217 48.9005 52.611 49.0041L54.464 52H53.0659L51.3572 49.2593H49.5263V52H48.2836ZM49.5263 48.1608H51.7011C51.9304 48.1608 52.1339 48.0942 52.3114 47.9611C52.4889 47.8279 52.6295 47.6504 52.733 47.4285C52.8366 47.1992 52.8884 46.9514 52.8884 46.6851C52.8884 46.4114 52.8292 46.1673 52.7109 45.9527C52.5925 45.7308 52.4372 45.5533 52.2448 45.4201C52.0599 45.287 51.8565 45.2204 51.6346 45.2204H49.5263V48.1608ZM61.6342 52.0555C61.0646 52.0555 60.5505 51.9445 60.0919 51.7226C59.6332 51.5007 59.2375 51.2011 58.9046 50.8238C58.5717 50.4392 58.3128 50.0101 58.1279 49.5367C57.9504 49.0559 57.8616 48.564 57.8616 48.061C57.8616 47.5358 57.9578 47.0364 58.1501 46.563C58.3424 46.0822 58.6087 45.6568 58.949 45.287C59.2893 44.9097 59.6887 44.6138 60.1474 44.3993C60.6134 44.1774 61.1164 44.0664 61.6564 44.0664C62.2186 44.0664 62.729 44.1811 63.1876 44.4104C63.6537 44.6397 64.0494 44.9467 64.3749 45.3314C64.7078 45.716 64.963 46.1451 65.1405 46.6185C65.3254 47.0919 65.4179 47.5764 65.4179 48.0721C65.4179 48.5973 65.3217 49.1003 65.1294 49.5811C64.9445 50.0545 64.6819 50.4799 64.3416 50.8571C64.0013 51.227 63.5982 51.5192 63.1321 51.7337C62.6735 51.9482 62.1742 52.0555 61.6342 52.0555ZM59.1265 48.061C59.1265 48.4308 59.1857 48.7896 59.3041 49.1373C59.4224 49.4849 59.5889 49.7956 59.8034 50.0693C60.0253 50.3356 60.2916 50.5464 60.6023 50.7018C60.913 50.8571 61.2606 50.9348 61.6453 50.9348C62.0448 50.9348 62.3998 50.8534 62.7105 50.6907C63.0212 50.5279 63.2801 50.3097 63.4872 50.036C63.7017 49.7549 63.8645 49.4442 63.9754 49.104C64.0864 48.7563 64.1419 48.4086 64.1419 48.061C64.1419 47.6911 64.0827 47.336 63.9643 46.9958C63.8534 46.6481 63.6869 46.3411 63.465 46.0748C63.2431 45.8011 62.9768 45.5866 62.6661 45.4312C62.3628 45.2759 62.0226 45.1982 61.6453 45.1982C61.2458 45.1982 60.8908 45.2796 60.5801 45.4423C60.2694 45.6051 60.0068 45.8233 59.7923 46.097C59.5778 46.3707 59.4113 46.6777 59.293 47.0179C59.182 47.3582 59.1265 47.7059 59.1265 48.061ZM66.7045 52V44.1219H71.9529V45.2204H67.9472V47.5727H71.2982V48.6047H67.9472V52H66.7045ZM77.5286 44.1219H78.7048L81.7673 52H80.4579L79.6258 49.8585H76.5855L75.7644 52H74.444L77.5286 44.1219ZM79.3816 48.9375L78.1167 45.4867L76.8074 48.9375H79.3816ZM82.7415 52V44.1219H83.9843V52H82.7415ZM93.6991 52L89.9154 47.9944C89.5973 47.6541 89.3458 47.3656 89.1609 47.1289C88.9759 46.8922 88.8428 46.674 88.7614 46.4742C88.68 46.2745 88.6393 46.0674 88.6393 45.8529C88.6393 45.4904 88.7281 45.1723 88.9056 44.8986C89.0906 44.6249 89.3421 44.4104 89.6602 44.2551C89.9782 44.0997 90.3333 44.0221 90.7254 44.0221C91.0878 44.0221 91.4207 44.0886 91.724 44.2218C92.0273 44.3475 92.2714 44.5362 92.4563 44.7877C92.6413 45.0318 92.7337 45.3351 92.7337 45.6975C92.7337 46.0378 92.645 46.3448 92.4674 46.6185C92.2899 46.8922 92.0532 47.1437 91.7573 47.373C91.4614 47.6023 91.1322 47.8279 90.7698 48.0499C90.4887 48.2348 90.2335 48.4197 90.0041 48.6047C89.7748 48.7822 89.5936 48.9745 89.4604 49.1816C89.3347 49.3814 89.2718 49.607 89.2718 49.8585C89.2718 50.11 89.3421 50.3356 89.4826 50.5353C89.6232 50.7277 89.8118 50.8793 90.0485 50.9903C90.2852 51.0938 90.5441 51.1456 90.8252 51.1456C91.1729 51.1456 91.5021 51.0642 91.8128 50.9015C92.1235 50.7388 92.4009 50.5095 92.645 50.2136C92.8891 49.9103 93.0777 49.5552 93.2109 49.1484C93.3514 48.7415 93.4217 48.2977 93.4217 47.8168H94.4203C94.4203 48.4678 94.3167 49.0559 94.1096 49.5811C93.9099 50.1063 93.6362 50.5575 93.2885 50.9348C92.9482 51.3121 92.5525 51.6042 92.1013 51.8114C91.6574 52.0111 91.1877 52.111 90.6921 52.111C90.1817 52.111 89.7304 52.0111 89.3384 51.8114C88.9463 51.6042 88.6393 51.3305 88.4174 50.9903C88.2029 50.65 88.0956 50.269 88.0956 49.8474C88.0956 49.4332 88.1881 49.0744 88.373 48.7711C88.5654 48.4604 88.8095 48.1867 89.1054 47.95C89.4087 47.7059 89.7119 47.4877 90.0152 47.2953C90.3407 47.0882 90.6218 46.907 90.8585 46.7516C91.0952 46.5889 91.2802 46.4262 91.4133 46.2634C91.5465 46.0933 91.613 45.9121 91.613 45.7197C91.613 45.483 91.528 45.2944 91.3578 45.1538C91.1951 45.0059 90.9843 44.9319 90.7254 44.9319C90.533 44.9319 90.3629 44.9726 90.215 45.054C90.0744 45.1353 89.9635 45.2426 89.8821 45.3758C89.8007 45.5089 89.76 45.6568 89.76 45.8196C89.76 45.9305 89.7896 46.0452 89.8488 46.1636C89.908 46.2745 90.0189 46.4225 90.1817 46.6074C90.3444 46.7849 90.57 47.029 90.8585 47.3397L95.308 52H93.6991ZM98.4743 48.0055C98.4743 47.5247 98.5594 47.0549 98.7295 46.5963C98.8996 46.1303 99.1474 45.7086 99.4729 45.3314C99.8058 44.9467 100.209 44.6434 100.682 44.4215C101.156 44.1922 101.692 44.0775 102.291 44.0775C103.001 44.0775 103.615 44.2403 104.133 44.5658C104.651 44.8838 105.036 45.2944 105.287 45.7974L104.311 46.4521C104.163 46.134 103.974 45.8825 103.745 45.6975C103.523 45.5126 103.279 45.3832 103.013 45.3092C102.754 45.2352 102.498 45.1982 102.247 45.1982C101.833 45.1982 101.47 45.2833 101.159 45.4534C100.849 45.6162 100.586 45.8344 100.372 46.1081C100.165 46.3818 100.006 46.6888 99.8946 47.029C99.791 47.3693 99.7392 47.7096 99.7392 48.0499C99.7392 48.4271 99.8021 48.7933 99.9279 49.1484C100.054 49.496 100.227 49.8067 100.449 50.0804C100.679 50.3467 100.949 50.5575 101.259 50.7129C101.57 50.8682 101.91 50.9459 102.28 50.9459C102.532 50.9459 102.794 50.9015 103.068 50.8127C103.342 50.724 103.593 50.5871 103.823 50.4022C104.059 50.2099 104.244 49.9584 104.377 49.6477L105.409 50.2358C105.246 50.6278 104.991 50.9607 104.644 51.2344C104.303 51.5081 103.919 51.7152 103.49 51.8558C103.068 51.9963 102.65 52.0666 102.236 52.0666C101.681 52.0666 101.174 51.9519 100.716 51.7226C100.257 51.4859 99.8613 51.1752 99.5284 50.7905C99.1955 50.3985 98.9366 49.9621 98.7517 49.4812C98.5668 48.993 98.4743 48.5011 98.4743 48.0055ZM106.559 52V44.1219H107.801V50.9015H112.029V52H106.559ZM116.095 52.0555C115.525 52.0555 115.011 51.9445 114.553 51.7226C114.094 51.5007 113.698 51.2011 113.365 50.8238C113.033 50.4392 112.774 50.0101 112.589 49.5367C112.411 49.0559 112.322 48.564 112.322 48.061C112.322 47.5358 112.419 47.0364 112.611 46.563C112.803 46.0822 113.07 45.6568 113.41 45.287C113.75 44.9097 114.15 44.6138 114.608 44.3993C115.074 44.1774 115.577 44.0664 116.117 44.0664C116.679 44.0664 117.19 44.1811 117.649 44.4104C118.115 44.6397 118.51 44.9467 118.836 45.3314C119.169 45.716 119.424 46.1451 119.601 46.6185C119.786 47.0919 119.879 47.5764 119.879 48.0721C119.879 48.5973 119.783 49.1003 119.59 49.5811C119.405 50.0545 119.143 50.4799 118.802 50.8571C118.462 51.227 118.059 51.5192 117.593 51.7337C117.134 51.9482 116.635 52.0555 116.095 52.0555ZM113.587 48.061C113.587 48.4308 113.647 48.7896 113.765 49.1373C113.883 49.4849 114.05 49.7956 114.264 50.0693C114.486 50.3356 114.752 50.5464 115.063 50.7018C115.374 50.8571 115.722 50.9348 116.106 50.9348C116.506 50.9348 116.861 50.8534 117.171 50.6907C117.482 50.5279 117.741 50.3097 117.948 50.036C118.163 49.7549 118.325 49.4442 118.436 49.104C118.547 48.7563 118.603 48.4086 118.603 48.061C118.603 47.6911 118.544 47.336 118.425 46.9958C118.314 46.6481 118.148 46.3411 117.926 46.0748C117.704 45.8011 117.438 45.5866 117.127 45.4312C116.824 45.2759 116.483 45.1982 116.106 45.1982C115.707 45.1982 115.352 45.2796 115.041 45.4423C114.73 45.6051 114.468 45.8233 114.253 46.097C114.039 46.3707 113.872 46.6777 113.754 47.0179C113.643 47.3582 113.587 47.7059 113.587 48.061ZM124.45 52.0555C123.821 52.0555 123.288 51.9482 122.852 51.7337C122.423 51.5192 122.075 51.227 121.809 50.8571C121.55 50.4873 121.358 50.0656 121.232 49.5922C121.114 49.1188 121.054 48.6268 121.054 48.1164V44.1219H122.297V48.1164C122.297 48.4789 122.334 48.8303 122.408 49.1705C122.482 49.5034 122.6 49.803 122.763 50.0693C122.926 50.3356 123.144 50.5464 123.418 50.7018C123.699 50.8571 124.043 50.9348 124.45 50.9348C124.864 50.9348 125.208 50.8571 125.482 50.7018C125.763 50.539 125.981 50.3245 126.136 50.0582C126.299 49.7845 126.417 49.4812 126.491 49.1484C126.565 48.8155 126.602 48.4715 126.602 48.1164V44.1219H127.856V48.1164C127.856 48.6564 127.79 49.1668 127.656 49.6477C127.531 50.1211 127.331 50.539 127.057 50.9015C126.791 51.2566 126.443 51.5377 126.014 51.7448C125.585 51.9519 125.064 52.0555 124.45 52.0555ZM129.509 52V44.1219H132.305C133.156 44.1219 133.866 44.2995 134.436 44.6545C135.005 45.0022 135.43 45.4756 135.712 46.0748C136 46.6666 136.144 47.3249 136.144 48.0499C136.144 48.8488 135.985 49.5441 135.667 50.1359C135.357 50.7277 134.913 51.1863 134.336 51.5118C133.759 51.8373 133.082 52 132.305 52H129.509ZM134.879 48.0499C134.879 47.4951 134.776 47.0068 134.569 46.5852C134.369 46.1562 134.077 45.8233 133.692 45.5866C133.315 45.3425 132.853 45.2204 132.305 45.2204H130.752V50.9015H132.305C132.86 50.9015 133.326 50.7758 133.703 50.5242C134.088 50.2727 134.38 49.9325 134.58 49.5034C134.78 49.0744 134.879 48.5899 134.879 48.0499ZM142.121 44.1219H143.297L146.36 52H145.05L144.218 49.8585H141.178L140.357 52H139.036L142.121 44.1219ZM143.974 48.9375L142.709 45.4867L141.4 48.9375H143.974ZM147.334 52V44.1219H150.763C151.118 44.1219 151.443 44.1959 151.739 44.3438C152.035 44.4918 152.29 44.6878 152.505 44.9319C152.727 45.176 152.897 45.4497 153.015 45.753C153.141 46.0563 153.204 46.367 153.204 46.6851C153.204 47.0327 153.141 47.3656 153.015 47.6837C152.889 48.0018 152.708 48.2755 152.471 48.5048C152.242 48.7341 151.972 48.9005 151.661 49.0041L153.514 52H152.116L150.407 49.2593H148.577V52H147.334ZM148.577 48.1608H150.751C150.981 48.1608 151.184 48.0942 151.362 47.9611C151.539 47.8279 151.68 47.6504 151.783 47.4285C151.887 47.1992 151.939 46.9514 151.939 46.6851C151.939 46.4114 151.88 46.1673 151.761 45.9527C151.643 45.7308 151.487 45.5533 151.295 45.4201C151.11 45.287 150.907 45.2204 150.685 45.2204H148.577V48.1608ZM154.149 48.0055C154.149 47.5247 154.234 47.0549 154.404 46.5963C154.574 46.1303 154.822 45.7086 155.147 45.3314C155.48 44.9467 155.883 44.6434 156.357 44.4215C156.83 44.1922 157.367 44.0775 157.966 44.0775C158.676 44.0775 159.29 44.2403 159.808 44.5658C160.325 44.8838 160.71 45.2944 160.962 45.7974L159.985 46.4521C159.837 46.134 159.649 45.8825 159.419 45.6975C159.197 45.5126 158.953 45.3832 158.687 45.3092C158.428 45.2352 158.173 45.1982 157.921 45.1982C157.507 45.1982 157.145 45.2833 156.834 45.4534C156.523 45.6162 156.261 45.8344 156.046 46.1081C155.839 46.3818 155.68 46.6888 155.569 47.029C155.465 47.3693 155.414 47.7096 155.414 48.0499C155.414 48.4271 155.477 48.7933 155.602 49.1484C155.728 49.496 155.902 49.8067 156.124 50.0804C156.353 50.3467 156.623 50.5575 156.934 50.7129C157.245 50.8682 157.585 50.9459 157.955 50.9459C158.206 50.9459 158.469 50.9015 158.742 50.8127C159.016 50.724 159.268 50.5871 159.497 50.4022C159.734 50.2099 159.919 49.9584 160.052 49.6477L161.084 50.2358C160.921 50.6278 160.666 50.9607 160.318 51.2344C159.978 51.5081 159.593 51.7152 159.164 51.8558C158.742 51.9963 158.325 52.0666 157.91 52.0666C157.355 52.0666 156.849 51.9519 156.39 51.7226C155.932 51.4859 155.536 51.1752 155.203 50.7905C154.87 50.3985 154.611 49.9621 154.426 49.4812C154.241 48.993 154.149 48.5011 154.149 48.0055ZM168.702 44.1219V52H167.448V48.527H163.476V52H162.233V44.1219H163.476V47.4174H167.448V44.1219H168.702ZM170.479 52V44.1219H171.722V52H170.479ZM179.283 45.2204H176.665V52H175.411V45.2204H172.781V44.1219H179.283V45.2204ZM185.744 50.9015V52H180.34V44.1219H185.644V45.2204H181.583V47.4618H185.1V48.4937H181.583V50.9015H185.744ZM186.385 48.0055C186.385 47.5247 186.47 47.0549 186.641 46.5963C186.811 46.1303 187.059 45.7086 187.384 45.3314C187.717 44.9467 188.12 44.6434 188.593 44.4215C189.067 44.1922 189.603 44.0775 190.202 44.0775C190.913 44.0775 191.526 44.2403 192.044 44.5658C192.562 44.8838 192.947 45.2944 193.198 45.7974L192.222 46.4521C192.074 46.134 191.885 45.8825 191.656 45.6975C191.434 45.5126 191.19 45.3832 190.924 45.3092C190.665 45.2352 190.409 45.1982 190.158 45.1982C189.744 45.1982 189.381 45.2833 189.071 45.4534C188.76 45.6162 188.497 45.8344 188.283 46.1081C188.076 46.3818 187.917 46.6888 187.806 47.029C187.702 47.3693 187.65 47.7096 187.65 48.0499C187.65 48.4271 187.713 48.7933 187.839 49.1484C187.965 49.496 188.139 49.8067 188.36 50.0804C188.59 50.3467 188.86 50.5575 189.17 50.7129C189.481 50.8682 189.821 50.9459 190.191 50.9459C190.443 50.9459 190.705 50.9015 190.979 50.8127C191.253 50.724 191.504 50.5871 191.734 50.4022C191.97 50.2099 192.155 49.9584 192.288 49.6477L193.32 50.2358C193.158 50.6278 192.902 50.9607 192.555 51.2344C192.214 51.5081 191.83 51.7152 191.401 51.8558C190.979 51.9963 190.561 52.0666 190.147 52.0666C189.592 52.0666 189.085 51.9519 188.627 51.7226C188.168 51.4859 187.772 51.1752 187.439 50.7905C187.107 50.3985 186.848 49.9621 186.663 49.4812C186.478 48.993 186.385 48.5011 186.385 48.0055ZM200.251 45.2204H197.632V52H196.378V45.2204H193.749V44.1219H200.251V45.2204ZM204.592 52.0555C203.963 52.0555 203.43 51.9482 202.994 51.7337C202.565 51.5192 202.217 51.227 201.951 50.8571C201.692 50.4873 201.5 50.0656 201.374 49.5922C201.255 49.1188 201.196 48.6268 201.196 48.1164V44.1219H202.439V48.1164C202.439 48.4789 202.476 48.8303 202.55 49.1705C202.624 49.5034 202.742 49.803 202.905 50.0693C203.068 50.3356 203.286 50.5464 203.56 50.7018C203.841 50.8571 204.185 50.9348 204.592 50.9348C205.006 50.9348 205.35 50.8571 205.623 50.7018C205.905 50.539 206.123 50.3245 206.278 50.0582C206.441 49.7845 206.559 49.4812 206.633 49.1484C206.707 48.8155 206.744 48.4715 206.744 48.1164V44.1219H207.998V48.1164C207.998 48.6564 207.931 49.1668 207.798 49.6477C207.673 50.1211 207.473 50.539 207.199 50.9015C206.933 51.2566 206.585 51.5377 206.156 51.7448C205.727 51.9519 205.206 52.0555 204.592 52.0555ZM209.651 52V44.1219H213.079C213.434 44.1219 213.76 44.1959 214.056 44.3438C214.352 44.4918 214.607 44.6878 214.821 44.9319C215.043 45.176 215.214 45.4497 215.332 45.753C215.458 46.0563 215.521 46.367 215.521 46.6851C215.521 47.0327 215.458 47.3656 215.332 47.6837C215.206 48.0018 215.025 48.2755 214.788 48.5048C214.559 48.7341 214.289 48.9005 213.978 49.0041L215.831 52H214.433L212.724 49.2593H210.894V52H209.651ZM210.894 48.1608H213.068C213.298 48.1608 213.501 48.0942 213.679 47.9611C213.856 47.8279 213.997 47.6504 214.1 47.4285C214.204 47.1992 214.256 46.9514 214.256 46.6851C214.256 46.4114 214.196 46.1673 214.078 45.9527C213.96 45.7308 213.804 45.5533 213.612 45.4201C213.427 45.287 213.224 45.2204 213.002 45.2204H210.894V48.1608ZM222.39 50.9015V52H216.987V44.1219H222.29V45.2204H218.229V47.4618H221.747V48.4937H218.229V50.9015H222.39Z" fill="white" fill-opacity="0.64"/>
</svg>
